<svg width="64" height="64" viewBox="0 0 64 64" fill="none" xmlns="http://www.w3.org/2000/svg">
<g clip-path="url(#clip0_345_1455)">
<path d="M34.9491 46.2786C34.1883 47.2346 32.6458 46.7108 32.6274 45.4901L32.3594 27.6357H44.3903C46.5694 27.6357 47.7848 30.1473 46.4297 31.8503L34.9491 46.2786Z" fill="url(#paint0_linear_345_1455)"/>
<path d="M34.9491 46.2786C34.1883 47.2346 32.6458 46.7108 32.6274 45.4901L32.3594 27.6357H44.3903C46.5694 27.6357 47.7848 30.1473 46.4297 31.8503L34.9491 46.2786Z" fill="url(#paint1_linear_345_1455)" fill-opacity="0.2"/>
<path d="M30.0561 17.5494C30.8169 16.5933 32.3595 17.1172 32.3778 18.3379L32.4953 36.1922H20.6149C18.4357 36.1922 17.2204 33.6807 18.5754 31.9777L30.0561 17.5494Z" fill="#3ECF8E"/>
</g>
<defs>
<linearGradient id="paint0_linear_345_1455" x1="32.3594" y1="31.5945" x2="43.0452" y2="36.0857" gradientUnits="userSpaceOnUse">
<stop stop-color="#249361"/>
<stop offset="1" stop-color="#3ECF8E"/>
</linearGradient>
<linearGradient id="paint1_linear_345_1455" x1="27.6188" y1="25.1177" x2="32.479" y2="34.2863" gradientUnits="userSpaceOnUse">
<stop/>
<stop offset="1" stop-opacity="0"/>
</linearGradient>
<clipPath id="clip0_345_1455">
<rect width="29" height="30" fill="white" transform="translate(18 17)"/>
</clipPath>
</defs>
</svg>
