<svg width="64" height="64" viewBox="0 0 64 64" fill="none" xmlns="http://www.w3.org/2000/svg">
<g clip-path="url(#clip0_345_1455)">
<path d="M25.199 18.3596L28.4978 24.2482L25.4684 29.644C25.3233 29.9017 25.2472 30.1918 25.2472 30.4867C25.2472 30.7817 25.3233 31.0717 25.4684 31.3294L28.4978 36.7385L25.1991 42.6271C24.5784 42.3227 24.0629 41.8428 23.7179 41.2483L18.4669 32.2219C18.161 31.6949 18 31.0977 18 30.4899C18 29.8822 18.161 29.285 18.4669 28.758L23.718 19.7317C24.064 19.1396 24.5794 18.6621 25.1992 18.3594L25.199 18.3596Z" fill="url(#paint0_linear_345_1455)"/>
<path opacity="0.7" d="M25.4688 29.6505C25.325 29.9073 25.2495 30.1962 25.2495 30.4898C25.2495 30.7834 25.325 31.0722 25.4688 31.3291L28.4983 36.7382L25.1995 42.6269C24.5788 42.3225 24.0633 41.8426 23.7184 41.2481L18.4674 32.2217C18.05 31.5089 20.386 30.6562 25.4689 29.657V29.6504L25.4688 29.6505Z" fill="url(#paint1_linear_345_1455)"/>
<path opacity="0.5" d="M25.536 18.9523L28.4982 24.2481L28.0068 25.0942L25.3947 20.7176C24.6407 19.4986 23.4894 20.1315 22.0488 22.5962L22.2643 22.2297L23.7183 19.7317C24.0607 19.1415 24.5712 18.6642 25.186 18.3594L25.5294 18.9523H25.536Z" fill="url(#paint2_linear_345_1455)"/>
<path d="M40.2786 19.7319L45.5297 28.7582C46.1559 29.824 46.1559 31.1564 45.5297 32.2222L40.2786 41.2484C39.9716 41.7746 39.53 42.2117 38.9982 42.5157C38.4665 42.8198 37.8633 42.98 37.2491 42.9804H31.998L38.5283 31.3295C38.6721 31.0727 38.7476 30.7839 38.7476 30.4902C38.7476 30.1966 38.6721 29.9077 38.5283 29.6509L31.998 18H37.2491C37.8633 18.0004 38.4665 18.1606 38.9982 18.4646C39.53 18.7686 39.9715 19.2057 40.2786 19.7319Z" fill="url(#paint3_linear_345_1455)"/>
<path d="M36.9808 42.9405L31.797 42.987L38.0715 31.2762C38.2118 31.0158 38.2851 30.7253 38.2851 30.4302C38.2851 30.1351 38.2118 29.8446 38.0715 29.5842L31.7969 18H32.9818L39.5659 29.531C39.7219 29.8034 39.8034 30.1114 39.8022 30.4245C39.801 30.7376 39.7172 31.045 39.5591 31.3162C38.1421 33.7531 36.7351 36.1957 35.3381 38.6438C34.059 40.8687 34.611 42.3009 36.9807 42.9404L36.9808 42.9405Z" fill="url(#paint4_linear_345_1455)"/>
<path d="M26.7476 42.9804C26.2091 42.9804 25.6704 42.8538 25.1992 42.6273L31.6755 31.0697C31.7749 30.8924 31.827 30.6929 31.827 30.4902C31.827 30.2874 31.7749 30.0879 31.6755 29.9106L25.1992 18.3597C25.6806 18.1239 26.2104 18.0008 26.7476 18H31.9987L38.529 29.6509C38.6728 29.9077 38.7482 30.1965 38.7482 30.4902C38.7482 30.7838 38.6728 31.0726 38.529 31.3294L31.9987 42.9805H26.7476V42.9804Z" fill="url(#paint5_linear_345_1455)"/>
<path opacity="0.6" d="M38.071 29.9106L31.3926 18H31.9985L38.5287 29.6509C38.6726 29.9077 38.748 30.1965 38.748 30.4902C38.748 30.7838 38.6726 31.0726 38.5287 31.3294L31.9985 42.9805H31.3926L38.071 31.0698C38.1704 30.8925 38.2225 30.693 38.2225 30.4903C38.2225 30.2875 38.1704 30.0879 38.071 29.9106Z" fill="url(#paint6_linear_345_1455)"/>
<path opacity="0.6" d="M31.6755 29.9106L25.1992 18.3597C25.4011 18.2531 25.6435 18.1731 25.8724 18.1064C27.2997 20.6445 29.4069 24.4949 32.2008 29.6508C32.3446 29.9077 32.42 30.1965 32.42 30.4901C32.42 30.7837 32.3446 31.0725 32.2008 31.3294L25.7715 42.8472C25.5425 42.7806 25.4214 42.7339 25.206 42.634L31.6689 31.0765C31.7682 30.8991 31.8203 30.6997 31.8203 30.4969C31.8203 30.2942 31.7682 30.0947 31.6689 29.9174L31.6755 29.9106Z" fill="url(#paint7_linear_345_1455)"/>
</g>
<defs>
<linearGradient id="paint0_linear_345_1455" x1="542.892" y1="2445.13" x2="-516.033" y2="724.059" gradientUnits="userSpaceOnUse">
<stop stop-color="#EB6F07"/>
<stop offset="1" stop-color="#FAB743"/>
</linearGradient>
<linearGradient id="paint1_linear_345_1455" x1="834.766" y1="1115.78" x2="287.157" y2="546.61" gradientUnits="userSpaceOnUse">
<stop stop-color="#D96504"/>
<stop offset="1" stop-color="#D96504" stop-opacity="0"/>
</linearGradient>
<linearGradient id="paint2_linear_345_1455" x1="292.924" y1="76.9525" x2="581.565" y2="545.53" gradientUnits="userSpaceOnUse">
<stop stop-color="#EB6F07"/>
<stop offset="1" stop-color="#EB720A" stop-opacity="0"/>
</linearGradient>
<linearGradient id="paint3_linear_345_1455" x1="732.062" y1="2516.04" x2="-214.285" y2="523.151" gradientUnits="userSpaceOnUse">
<stop stop-color="#EE6F05"/>
<stop offset="1" stop-color="#FAB743"/>
</linearGradient>
<linearGradient id="paint4_linear_345_1455" x1="-233.979" y1="2516.7" x2="1305.53" y2="2121.81" gradientUnits="userSpaceOnUse">
<stop stop-color="#D96504" stop-opacity="0.8"/>
<stop offset="0.498" stop-color="#D96504" stop-opacity="0.2"/>
<stop offset="1" stop-color="#D96504" stop-opacity="0"/>
</linearGradient>
<linearGradient id="paint5_linear_345_1455" x1="702.649" y1="2516.05" x2="-263.232" y2="547.74" gradientUnits="userSpaceOnUse">
<stop stop-color="#FFA95F"/>
<stop offset="1" stop-color="#FFEBC8"/>
</linearGradient>
<linearGradient id="paint6_linear_345_1455" x1="90.9715" y1="45.4786" x2="909.838" y2="175.581" gradientUnits="userSpaceOnUse">
<stop stop-color="white" stop-opacity="0.5"/>
<stop offset="1" stop-color="white" stop-opacity="0.1"/>
</linearGradient>
<linearGradient id="paint7_linear_345_1455" x1="-73.7255" y1="2596.1" x2="938.48" y2="2445.4" gradientUnits="userSpaceOnUse">
<stop stop-color="white" stop-opacity="0.5"/>
<stop offset="1" stop-color="white" stop-opacity="0.1"/>
</linearGradient>
<clipPath id="clip0_345_1455">
<rect width="28" height="25" fill="white" transform="translate(18 18)"/>
</clipPath>
</defs>
</svg>
