<?xml version="1.0" encoding="UTF-8" standalone="no"?>
<svg xmlns="http://www.w3.org/2000/svg" xmlns:xlink="http://www.w3.org/1999/xlink" xml:space="preserve" width="601" height="601" version="1.0" viewBox="0 0 600 599.99902">
  <defs>
    <path id="a" d="M80.75293 0c34.67578 10.583496 71.48486 16.276856 109.62402 16.276856 38.13868 0 74.94727-5.69336 109.62305-16.2763677C334.67578 10.583496 371.48438 16.276856 409.62305 16.276856c38.13867 0 74.94824-5.69336 109.62402-16.276856C569.8125 63.908203 600 144.67822 600 232.5c0 181.42383-128.83008 332.75391-300 367.49902C128.83008 565.25391 0 413.92383 0 232.5 0 144.67822 30.187988 63.907715 80.75293 0z"/>
  </defs>
  <g fill="#fff" stroke="#000" stroke-width=".99999923" transform="translate(.4991681 .4986858) scale(.99834)">
    <use xlink:href="#a"/>
    <use xlink:href="#a" stroke-linecap="round" stroke-linejoin="round"/>
  </g>
  <path fill="#003f87" d="M12.9783701 231.22234275c0-32.30789442 4.19900988-63.63166041 12.0797129-93.45232483h549.88436167c7.8797211 29.82066442 12.07922043 61.1444304 12.07922043 93.45232483 0 174.88580783-123.04047006 320.93903998-287.0216475 355.79879232-163.98068396-34.85975234-287.0216475-180.9129845-287.0216475-355.79879232z"/>
  <path fill="#af1e2d" d="M27.95341368 125.2908203c12.408634-40.2854871 31.42798706-77.60989994 55.7696348-110.66422392 33.51685345 9.38075506 68.82050853 14.39312005 105.27858767 14.39312005 38.53806147 0 75.78670623-5.59966493 110.99839175-16.04167403 35.21168552 10.4420091 72.46033028 16.04167403 110.99839175 16.04167403 36.45759312 0 71.76222024-5.01236499 105.27908585-14.39312005 24.34065645 33.05432398 43.36050465 70.37873682 55.7691356 110.66422391H27.95341368z"/>
  <path fill="#fff" d="M175.69196 440.39054V238.12002h-22.7244V206.4602h2.60325c5.21404.00023 10.4281-1.36582 15.6422-4.09816 5.21403-2.73187 9.56034-6.58371 13.03897-11.55555h31.65956v249.58405h-40.21958zm271.34008-124.42257c-.00021 19.87133-2.35903 38.87101-7.07651 56.99906-4.71785 18.12819-11.42301 32.7815-20.11546 43.95998-13.90687 18.62076-34.02044 27.93113-60.34076 27.93113-17.63546 0-32.16361-3.59985-43.58448-10.79957-11.42098-7.19971-20.85633-18.49947-28.30603-33.89933-5.21409-10.67827-9.43537-23.65291-12.66381-38.92396-3.22851-15.27091-4.84275-30.35999-4.84272-45.26731-.00003-20.60622 2.42132-39.72525 7.26407-57.35715 4.8427-17.63155 11.48531-32.40801 19.9279-44.32946 7.44971-9.43518 16.32801-16.45111 26.63496-21.04782 10.3068-4.59619 22.65989-6.89442 37.05931-6.89468 15.89218.00026 29.42563 3.60203 40.6004 10.80528 11.17448 7.20374 20.73675 18.50161 28.68686 33.89363 5.2139 11.17872 9.3101 24.21778 12.28869 39.11723 2.97819 14.89979 4.46737 30.17076 4.46758 45.81297zm-39.48066 0c-.00016-14.14921-1.24116-27.24701-3.72299-39.29343-2.48214-12.0461-6.2089-22.29053-11.18031-30.73334-3.97133-6.4568-8.50142-11.17452-13.59031-14.15314-5.08915-2.9782-11.35854-4.7175-18.80817-5.2179-9.68554-.49239-17.75674 1.7433-24.2136 6.70711-6.45704 4.96422-11.79615 13.03548-16.01734 24.2138-3.22857 7.44999-5.64992 16.45153-7.26409 27.00463-1.6143 10.55343-2.42143 21.04417-2.42136 31.47227-.00007 13.41432 1.24093 26.33024 3.72298 38.74777 2.48191 12.41769 6.2049 22.59772 11.16896 30.54008 3.97867 6.45707 8.69823 11.29981 14.1587 14.52828 5.46027 3.22853 12.16541 4.8428 20.11546 4.84276 9.18514.00004 16.82056-2.48197 22.90629-7.44602 6.08547-4.96398 11.23892-13.03523 15.46034-24.21381 1.24273-3.22843 2.48562-7.13902 3.72865-11.73175 1.24274-4.59259 2.29805-9.43534 3.16597-14.52829.8676-5.09275 1.54966-10.24623 2.04622-15.46046.49623-5.21399.74444-10.30685.7446-15.27856z" font-family="Roadgeek 2005 Series D" font-size="373.12530518" font-weight="400" style="text-align:center;line-height:125%" text-anchor="middle"/>
  <path fill="#fff" d="M108.86859 112.81165V50.416161h8.74108v62.395489h-8.74108zm50.70106 0-19.25023-41.813933v41.813933h-8.92838V50.416161h8.92838l17.11035 37.437288V50.416161h8.92839v62.395489h-6.78851zm35.84689-54.105458v54.105458h-9.01919V58.706192h-11.34637v-8.290031h31.71192v8.290031h-11.34636zm19.88878 54.105458V50.416161h29.29395v8.756113H224.2337v15.735995h12.92714v8.568543H224.2337v20.581558h22.78356v8.75328h-31.71194zm67.89941 0-8.27849-29.334838h-8.55377v29.334838h-8.92837V50.416161h18.60032c2.41796.000063 4.63443.403623 6.64947 1.210679 2.01495.807181 3.75086 1.925022 5.20774 3.353528 1.45681 1.42862 2.57262 3.182588 3.34744 5.261908.77472 2.079427 1.16212 4.361054 1.16216 6.844889-.00004 3.72492-.74407 6.891346-2.23209 9.49929-1.48812 2.608015-3.7202 4.469978-6.69629 5.585892l8.92838 30.639303h-9.2065zm.46542-45.724485c-.00003-2.421312-.74406-4.345798-2.2321-5.773466-1.48809-1.427563-3.44111-2.141371-5.85905-2.141425h-9.20653v15.735995h9.20653c2.60336.000038 4.60273-.667351 5.99812-2.002168 1.39532-1.334738 2.093-3.27438 2.09303-5.818936zm50.89405 28.681174c-.00004 2.546421-.44939 4.921361-1.34806 7.124821-.89875 2.20349-2.13848 4.11233-3.71921 5.72657-1.5808 1.61425-3.40989 2.9026-5.48729 3.86509-2.07745.96248-4.32515 1.44371-6.74312 1.44371-2.72828 0-5.17701-.52765-7.34619-1.58297-2.16919-1.05532-3.99781-2.48293-5.48586-4.28286-1.48807-1.79991-2.6351-3.87975-3.4411-6.23955-.806-2.359762-1.209-4.811906-1.20899-7.356434h8.74108c-.00002 1.303535.17027 2.59142.51084 3.86366.34054 1.27227.86746 2.420894 1.58077 3.445894.71328 1.02502 1.61245 1.84777 2.69753 2.46825 1.08504.62051 2.40234.93075 3.95192.93074 1.17871.00001 2.31059-.24819 3.39569-.74459 1.08503-.49638 2.01495-1.1794 2.78976-2.04906.77475-.86964 1.39437-1.87854 1.8589-3.026703.46446-1.148141.6967-2.343663.69673-3.586568-.00003-1.799896-.37181-3.398029-1.11534-4.794405-.74359-1.396332-2.04529-2.80879-3.9051-4.23738-.31031-.310695-.43424-.481687-.37178-.512975.06242-.031236-.12347-.201754-.55767-.511556-.43424-.309746-1.34903-.915086-2.74436-1.816019-1.39537-.900875-3.67382-2.43696-6.83535-4.608257-2.54097-1.73925-4.44717-3.773153-5.71858-6.101712-1.27145-2.328479-1.90716-4.889093-1.90716-7.681849 0-2.235634.403-4.331112 1.20902-6.286441.80597-1.95522 1.93738-3.677926 3.39423-5.168124 1.45684-1.49008 3.14641-2.654338 5.0687-3.492783 1.92226-.838318 3.99874-1.257508 6.22944-1.257571 2.23253.000063 4.29434.403623 6.18543 1.210678 1.89105.807182 3.53378 1.925022 4.92821 3.353528 1.39437 1.428622 2.51018 3.13617 3.34745 5.122653.83716 1.986589 1.28699 4.159274 1.34946 6.51806h-8.5566c-.12301-2.173111-.86658-3.911448-2.23068-5.215017-1.36417-1.303464-3.03859-1.955221-5.02327-1.955275-2.04529.000054-3.78074.683073-5.20634 2.04906-1.42564 1.366092-2.13845 3.073168-2.13844 5.121232-.00001 1.551762.40299 2.855279 1.209 3.910553.80597 1.055361 2.35552 2.234779 4.64865 3.538256 6.01467 3.476712 10.40128 7.015437 13.15986 10.616182 2.75852 3.600803 4.13778 7.667187 4.13782 12.199162zm25.95644-37.062147v54.105458h-9.0192V58.706192h-11.34636v-8.290031H371.867v8.290031h-11.34636zm45.92752 54.105458-4.37053-17.043311h-13.39257l-4.08958 17.043311h-9.02203l15.5296-62.395489h8.7439l15.52959 62.395489h-8.92838zM395.2891 69.042441l-4.37054 17.972627h8.92839l-4.55785-17.972627zm44.24174-10.336249v54.105458h-9.01919V58.706192h-11.34636v-8.290031h31.71192v8.290031h-11.34637zm19.8888 54.105458V50.416161h29.29394v8.756113h-20.36556v15.735995h12.92713v8.568543h-12.92713v20.581558h22.78355v8.75328h-31.71193z" font-family="Roadgeek 2005 Series C" font-size="93.21589661" font-weight="400" style="text-align:center;line-height:125%" text-anchor="middle"/>
</svg>