<?xml version="1.0" encoding="UTF-8" standalone="no"?>
<!-- Created with Inkscape (http://www.inkscape.org/) -->

<svg
   version="1.0"
   width="641.06665"
   height="641.06665"
   viewBox="0 0 601 601"
   id="Layer_1"
   xml:space="preserve"
   sodipodi:version="0.32"
   inkscape:version="1.1.2 (0a00cf5339, 2022-02-04)"
   sodipodi:docname="I-42.svg"
   inkscape:output_extension="org.inkscape.output.svg.inkscape"
   sodipodi:modified="true"
   xmlns:inkscape="http://www.inkscape.org/namespaces/inkscape"
   xmlns:sodipodi="http://sodipodi.sourceforge.net/DTD/sodipodi-0.dtd"
   xmlns="http://www.w3.org/2000/svg"
   xmlns:svg="http://www.w3.org/2000/svg"
   xmlns:rdf="http://www.w3.org/1999/02/22-rdf-syntax-ns#"
   xmlns:cc="http://creativecommons.org/ns#"
   xmlns:dc="http://purl.org/dc/elements/1.1/"><metadata
   id="metadata36"><rdf:RDF><cc:Work
       rdf:about=""><dc:format>image/svg+xml</dc:format><dc:type
         rdf:resource="http://purl.org/dc/dcmitype/StillImage" /></cc:Work></rdf:RDF></metadata><sodipodi:namedview
   inkscape:window-height="1043"
   inkscape:window-width="1920"
   inkscape:pageshadow="2"
   inkscape:pageopacity="0.0"
   guidetolerance="10.0"
   gridtolerance="10.0"
   objecttolerance="10.0"
   borderopacity="1.0"
   bordercolor="#666666"
   pagecolor="#ffffff"
   id="base"
   width="601px"
   height="601px"
   inkscape:zoom="0.32113138"
   inkscape:cx="-386.1348"
   inkscape:cy="548.0623"
   inkscape:window-x="0"
   inkscape:window-y="0"
   inkscape:current-layer="Layer_1"
   inkscape:pagecheckerboard="0"
   showgrid="false"
   inkscape:window-maximized="1" /><defs
   id="defs1659">
	
	
	
	
</defs>
<g
   transform="matrix(0.9983361,0,0,0.9983377,0.4991681,0.4986859)"
   style="fill:#ffffff;fill-opacity:1;stroke:#000000;stroke-width:0.999999;stroke-miterlimit:4;stroke-dasharray:none;stroke-opacity:1"
   id="g1600">
		<path
   id="path1602"
   style="fill:#ffffff;fill-opacity:1;stroke:#000000;stroke-width:0.999999;stroke-miterlimit:4;stroke-dasharray:none;stroke-opacity:1"
   d="m 80.75293,0 c 34.67578,10.583496 71.48486,16.276856 109.62402,16.276856 38.13868,0 74.94727,-5.69336 109.62305,-16.2763677 34.67578,10.5830077 71.48438,16.2763677 109.62305,16.2763677 38.13867,0 74.94824,-5.69336 109.62402,-16.276856 C 569.8125,63.908203 600,144.67822 600,232.5 600,413.92383 471.16992,565.25391 300,599.99902 128.83008,565.25391 0,413.92383 0,232.5 0,144.67822 30.187988,63.907715 80.75293,0 Z" />
		
			<path
   id="path1604"
   style="fill:#ffffff;fill-opacity:1;stroke:#000000;stroke-width:0.999999;stroke-linecap:round;stroke-linejoin:round;stroke-miterlimit:4;stroke-dasharray:none;stroke-opacity:1"
   d="m 80.75293,0 c 34.67578,10.583496 71.48486,16.276856 109.62402,16.276856 38.13868,0 74.94727,-5.69336 109.62305,-16.2763677 34.67578,10.5830077 71.48438,16.2763677 109.62305,16.2763677 38.13867,0 74.94824,-5.69336 109.62402,-16.276856 C 569.8125,63.908203 600,144.67822 600,232.5 600,413.92383 471.16992,565.25391 300,599.99902 128.83008,565.25391 0,413.92383 0,232.5 0,144.67822 30.187988,63.907715 80.75293,0 Z" />
	</g><g
   style="fill:#003f87;fill-opacity:1;stroke:none;stroke-opacity:1"
   transform="matrix(1.0070935,0,0,1.0102847,-2.1280324,-3.66885)"
   id="g1606">
		<path
   id="path1608"
   style="fill:#003f87;fill-opacity:1;stroke:none;stroke-opacity:1"
   d="m 15,232.5 c 0,-31.979 4.169434,-62.98389 11.994629,-92.50098 H 573.00586 C 580.83008,169.51611 585,200.521 585,232.5 585,405.60547 462.82617,550.17188 300,584.67676 137.17432,550.17188 15,405.60547 15,232.5 Z" />
	</g><g
   style="fill:#af1e2d;fill-opacity:1;stroke:none;stroke-opacity:1"
   transform="matrix(1.0125461,0,0,1.0271486,-3.7638021,-3.1017482)"
   id="g1610">
		<path
   id="path1612"
   style="fill:#af1e2d;fill-opacity:1;stroke:none;stroke-opacity:1"
   d="M 31.324219,124.99902 C 43.579102,85.77832 62.362793,49.44043 86.402832,17.259766 c 33.101558,9.132812 67.967778,14.012695 103.974118,14.012695 38.06055,0 74.84766,-5.45166 109.62305,-15.617676 34.77539,10.166016 71.5625,15.617676 109.62305,15.617676 36.00586,0 70.87304,-4.879883 103.97461,-14.012695 24.03906,32.180664 42.82324,68.518554 55.07812,107.739254 z" />
	</g>




<path
   style="font-style:normal;font-variant:normal;font-weight:normal;font-stretch:normal;font-size:373.125px;line-height:125%;font-family:'Roadgeek 2005 Series D';text-align:center;writing-mode:lr-tb;text-anchor:middle;fill:#ffffff;fill-opacity:1"
   d="m 245.53391,378.18494 v 62.2056 h -39.10553 v -62.2056 H 82.757145 V 354.71005 L 206.42838,190.80649 h 39.10553 v 151.61477 h 23.84982 v 35.76368 z m -39.10553,-129.64048 -71.1516,93.8768 h 71.1516 z m 117.60079,191.84608 c 0.49259,-14.64954 2.35312,-28.05995 5.58164,-40.2313 3.22843,-12.17126 8.32125,-24.21373 15.27843,-36.12744 5.21403,-9.44291 11.66907,-18.20006 19.3652,-26.27141 7.69598,-8.07116 15.89033,-15.33529 24.58306,-21.79242 2.23559,-1.2352 4.22307,-2.53682 5.96245,-3.9049 1.73918,-1.36783 3.47658,-2.67325 5.21218,-3.91628 l 13.41409,-7.07088 12.28869,-7.08226 11.92492,-6.7071 c 4.96382,-3.22836 8.99753,-7.26397 12.10111,-12.1069 3.10329,-4.84259 4.65499,-9.87103 4.65515,-15.08532 -1.6e-4,-4.71373 -1.24114,-9.12072 -3.72297,-13.22095 -2.48215,-4.09986 -5.77125,-7.63909 -9.86734,-10.61771 -4.09636,-2.97819 -8.87655,-5.33706 -14.34059,-7.07657 -5.46428,-1.73908 -11.29978,-2.60872 -17.50654,-2.60894 -12.66392,2.2e-4 -22.90827,2.98051 -30.73309,8.94091 -7.82497,5.96081 -12.73019,14.65163 -14.71573,26.07247 l -39.48066,-8.5601 c 4.22125,-20.86382 13.90479,-37.19391 29.05063,-48.9903 15.14575,-11.79593 33.77202,-17.69402 55.87885,-17.69428 11.921,2.6e-4 23.0331,1.98776 33.33632,5.96252 10.30295,3.97525 19.24189,9.3144 26.81685,16.01748 7.57463,6.70354 13.5977,14.58724 18.06925,23.65109 4.47117,9.06427 6.70688,18.68915 6.70707,28.87469 -1.9e-4,9.68568 -2.17337,19.18362 -6.51949,28.49384 -4.34651,9.31051 -10.61589,17.56934 -18.80818,24.77651 -1.98574,1.48554 -3.78566,2.84969 -5.39975,4.09248 -1.6144,1.24301 -3.29305,2.23582 -5.03595,2.9784 l -12.28869,7.82117 -13.41412,7.08225 -12.28868,7.08226 c -5.96447,3.47111 -11.24294,7.13161 -15.83546,10.98147 -4.59273,3.85003 -8.814,8.01072 -12.66383,12.48204 -3.85001,4.47148 -7.45173,9.43929 -10.80518,14.90342 -3.3536,5.46428 -6.51955,11.67119 -9.49786,18.62076 h 122.55719 v 40.2313 z"
   id="text5085" />
<path
   style="font-style:normal;font-variant:normal;font-weight:normal;font-stretch:normal;font-size:93.2159px;line-height:125%;font-family:'Roadgeek 2005 Series C';text-align:center;writing-mode:lr-tb;text-anchor:middle;fill:#ffffff;fill-opacity:1"
   d="M 108.86859,112.81165 V 50.416161 h 8.74108 v 62.395489 z m 50.70106,0 -19.25023,-41.813933 v 41.813933 h -8.92838 V 50.416161 h 8.92838 l 17.11035,37.437288 V 50.416161 h 8.92839 v 62.395489 z m 35.84689,-54.105458 v 54.105458 h -9.01919 V 58.706192 h -11.34637 v -8.290031 h 31.71192 v 8.290031 z m 19.88878,54.105458 V 50.416161 h 29.29395 v 8.756113 H 224.2337 v 15.735995 h 12.92714 v 8.568544 H 224.2337 v 20.581557 h 22.78356 v 8.75328 z m 67.89941,0 -8.27849,-29.334837 h -8.55377 V 112.81165 H 257.4441 V 50.416161 h 18.60032 c 2.41796,6.3e-5 4.63443,0.403623 6.64947,1.210679 2.01495,0.807181 3.75086,1.925022 5.20774,3.353528 1.45681,1.42862 2.57262,3.182588 3.34744,5.261909 0.77472,2.079426 1.16212,4.361053 1.16216,6.844888 -4e-5,3.72492 -0.74407,6.891346 -2.23209,9.49929 -1.48812,2.608015 -3.7202,4.469978 -6.69629,5.585892 l 8.92838,30.639303 z m 0.46542,-45.724485 c -3e-5,-2.421312 -0.74406,-4.345798 -2.2321,-5.773466 -1.48809,-1.427563 -3.44111,-2.141371 -5.85905,-2.141425 h -9.20653 v 15.735995 h 9.20653 c 2.60336,3.8e-5 4.60273,-0.667351 5.99812,-2.002168 1.39532,-1.334738 2.093,-3.27438 2.09303,-5.818936 z m 50.89404,28.681174 c -3e-5,2.546421 -0.44938,4.921361 -1.34805,7.124821 -0.89875,2.20349 -2.13848,4.11233 -3.71921,5.72657 -1.5808,1.61425 -3.40989,2.9026 -5.48729,3.86509 -2.07745,0.96248 -4.32515,1.44371 -6.74312,1.44371 -2.72828,0 -5.17701,-0.52765 -7.34619,-1.58297 -2.16919,-1.05532 -3.99781,-2.48293 -5.48586,-4.28286 -1.48807,-1.79991 -2.6351,-3.87975 -3.4411,-6.23955 -0.806,-2.359762 -1.209,-4.811906 -1.20899,-7.356434 h 8.74108 c -2e-5,1.303535 0.17027,2.59142 0.51084,3.86366 0.34054,1.27227 0.86746,2.420894 1.58077,3.445894 0.71328,1.02502 1.61245,1.84777 2.69753,2.46825 1.08504,0.62051 2.40234,0.93075 3.95192,0.93074 1.17871,1e-5 2.31059,-0.24819 3.39569,-0.74459 1.08503,-0.49638 2.01495,-1.1794 2.78976,-2.04906 0.77475,-0.86964 1.39437,-1.87854 1.8589,-3.026703 0.46446,-1.148141 0.6967,-2.343663 0.69673,-3.586568 -3e-5,-1.799896 -0.37181,-3.398029 -1.11534,-4.794405 -0.74359,-1.396332 -2.04529,-2.80879 -3.9051,-4.23738 -0.31031,-0.310695 -0.43424,-0.481687 -0.37178,-0.512975 0.0624,-0.03124 -0.12347,-0.201754 -0.55767,-0.511556 -0.43424,-0.309746 -1.34903,-0.915086 -2.74436,-1.816019 -1.39537,-0.900875 -3.67382,-2.43696 -6.83535,-4.608257 -2.54097,-1.73925 -4.44717,-3.773153 -5.71858,-6.101712 -1.27145,-2.328479 -1.90716,-4.889093 -1.90716,-7.681849 0,-2.235634 0.403,-4.331112 1.20902,-6.286441 0.80597,-1.95522 1.93738,-3.677926 3.39423,-5.168124 1.45684,-1.49008 3.14641,-2.654338 5.0687,-3.492783 1.92226,-0.838317 3.99874,-1.257508 6.22944,-1.257571 2.23253,6.3e-5 4.29434,0.403623 6.18543,1.210678 1.89105,0.807182 3.53378,1.925022 4.92821,3.353528 1.39437,1.428622 2.51018,3.13617 3.34745,5.122653 0.83716,1.986589 1.28699,4.159274 1.34945,6.51806 h -8.55659 c -0.12301,-2.173111 -0.86658,-3.911448 -2.23068,-5.215017 -1.36417,-1.303463 -3.03859,-1.955221 -5.02327,-1.955275 -2.04529,5.4e-5 -3.78074,0.683073 -5.20634,2.04906 -1.42564,1.366092 -2.13845,3.073168 -2.13844,5.121232 -10e-6,1.551762 0.40299,2.855279 1.209,3.910554 0.80597,1.05536 2.35552,2.234778 4.64865,3.538255 6.01467,3.476712 10.40128,7.015437 13.15986,10.616182 2.75852,3.600803 4.13778,7.667187 4.13781,12.199162 z m 25.95645,-37.062147 v 54.105458 h -9.0192 V 58.706192 H 340.15508 V 50.416161 H 371.867 v 8.290031 z m 45.92752,54.105458 -4.37053,-17.043311 h -13.39257 l -4.08958,17.043311 h -9.02203 l 15.5296,-62.395489 h 8.7439 l 15.52959,62.395489 z M 395.2891,69.042441 390.91856,87.015068 h 8.92839 z m 44.24174,-10.336249 v 54.105458 h -9.01919 V 58.706192 h -11.34636 v -8.290031 h 31.71192 v 8.290031 z m 19.8888,54.105458 V 50.416161 h 29.29394 v 8.756113 h -20.36556 v 15.735995 h 12.92713 v 8.568544 h -12.92713 v 20.581557 h 22.78355 v 8.75328 z"
   id="text6060" />
</svg>
