<?xml version="1.0" encoding="UTF-8" standalone="no"?>
<svg xmlns="http://www.w3.org/2000/svg" xmlns:xlink="http://www.w3.org/1999/xlink" xml:space="preserve" width="601" height="601" version="1.0" viewBox="0 0 600 599.99902">
  <defs>
    <path id="a" d="M80.75293 0c34.67578 10.583496 71.48486 16.276856 109.62402 16.276856 38.13868 0 74.94727-5.69336 109.62305-16.2763677C334.67578 10.583496 371.48438 16.276856 409.62305 16.276856c38.13867 0 74.94824-5.69336 109.62402-16.276856C569.8125 63.908203 600 144.67822 600 232.5c0 181.42383-128.83008 332.75391-300 367.49902C128.83008 565.25391 0 413.92383 0 232.5 0 144.67822 30.187988 63.907715 80.75293 0z"/>
  </defs>
  <g fill="#fff" stroke="#000" stroke-width=".99999928" transform="translate(.4991681 .4986859) scale(.99834)">
    <use xlink:href="#a"/>
    <use xlink:href="#a" stroke-linecap="round" stroke-linejoin="round"/>
  </g>
  <path fill="#003f87" d="M12.9783701 231.22234275c0-32.30789442 4.19900988-63.63166041 12.0797129-93.45232483h549.88436167c7.8797211 29.82066442 12.07922043 61.1444304 12.07922043 93.45232483 0 174.88580783-123.04047006 320.93903998-287.0216475 355.79879232-163.98068396-34.85975234-287.0216475-180.9129845-287.0216475-355.79879232z"/>
  <path fill="#af1e2d" d="M27.95341368 125.2908202c12.408634-40.2854871 31.42798706-77.60989994 55.7696348-110.66422392 33.51685345 9.38075506 68.82050853 14.39312005 105.27858767 14.39312005 38.53806147 0 75.78670623-5.59966493 110.99839175-16.04167403 35.21168552 10.4420091 72.46033028 16.04167403 110.99839175 16.04167403 36.45759312 0 71.76222024-5.01236499 105.27908585-14.39312005 24.34065645 33.05432398 43.36050465 70.37873682 55.7691356 110.66422391H27.95341368z"/>
  <path fill="#fff" d="M275.43401 368.49942c-.00019 10.67837-2.17337 20.67272-6.51949 29.98304-4.34651 9.31041-10.30707 17.38168-17.88169 24.21381-7.57496 6.83217-16.57642 12.23385-27.00442 16.20505-10.42826 3.97122-21.60289 5.95682-33.52389 5.95682-11.92122 0-23.09773-2.04812-33.52959-6.14439-10.43199-4.09624-19.43345-9.74614-27.0044-16.94965-7.57106-7.20349-13.52971-15.64799-17.876-25.33356-4.34635-9.68547-6.51951-20.11368-6.51949-31.28468-.00002-17.38534 2.29628-34.64571 6.88894-51.78115 4.59259-17.13521 11.11018-33.52592 19.55277-49.17222 8.44248-15.64594 18.56178-30.11168 30.35794-43.39726 11.79598-13.28516 24.89746-24.77059 39.30446-34.45637l20.10979 33.52418c-7.69999 5.96463-14.46766 11.73954-20.30304 17.32482-5.83563 5.58566-11.17474 11.35869-16.01736 17.31912-4.84282 5.96078-9.24976 12.23211-13.22084 18.814-3.97127 6.58223-7.8212 13.84446-11.54978 21.78674 7.20716-1.23518 12.73383-1.97788 16.58007-2.22812 3.84602-.24995 8.25487-.37499 13.22653-.37514 11.4208.00015 22.28472 1.98764 32.59173 5.9625 10.30674 3.97514 19.37072 9.37682 27.19198 16.20506 7.82094 6.82849 13.96716 14.89974 18.43872 24.21379 4.47117 9.31427 6.70687 19.18545 6.70706 29.61361zm-39.49205-.75029c-.00016-4.71384-1.17862-9.3065-3.5354-13.778-2.3571-4.47131-5.58368-8.32127-9.67976-11.54987-4.09637-3.22841-8.93909-5.83546-14.52816-7.82116-5.58935-1.9855-11.48736-2.97831-17.69412-2.97842-6.20696.00011-11.97996.99292-17.31898 2.97842-5.33919 1.9857-10.05876 4.59275-14.1587 7.82116-4.10009 3.2286-7.32856 7.07856-9.68543 11.54987-2.357 4.4715-3.53548 9.06416-3.53542 13.778-.00006 4.97166 1.17842 9.69127 3.53542 14.15881 2.35687 4.46768 5.58534 8.37826 9.68543 11.73176 4.09994 3.3536 8.81951 6.02318 14.1587 8.00875 5.33902 1.98565 11.11202 2.97845 17.31898 2.97841 6.20676.00004 12.04226-.99276 17.50654-2.97841 5.46404-1.98557 10.24423-4.65515 14.34059-8.00875 4.09609-3.3535 7.38519-7.26408 9.86733-11.73176 2.48184-4.46754 3.72282-9.18715 3.72298-14.15881zm258.483-7.07089c-.00019 11.4211-2.2984 22.22257-6.89462 32.40444-4.5966 10.18194-10.80535 19.12287-18.62628 26.82275-7.82128 7.69993-16.82273 13.78368-27.00441 18.25129-10.18197 4.46762-20.98335 6.70142-32.40416 6.70142-11.42861 0-22.23379-2.2338-32.41552-6.70142-10.18192-4.46761-19.18337-10.55136-27.00443-18.25129-7.82114-7.69988-14.028-16.64081-18.6206-26.82275-4.59264-10.18187-6.88896-20.98334-6.88894-32.40444-.00002-11.92113 2.48197-22.66197 7.44597-32.22254 4.96394-9.56036 12.04234-18.0655 21.23521-25.51544-12.17125-12.91387-18.25686-28.06359-18.25683-45.44919-.00003-9.68533 1.98746-18.81192 5.96247-27.37978 3.97492-8.56746 9.37656-16.14231 16.20492-22.7246 6.82825-6.58183 14.71187-11.7353 23.65089-15.46046 8.93885-3.72466 18.50113-5.58711 28.68686-5.58737 9.93541.00026 19.4958 1.86271 28.68117 5.58737 9.1851 3.72516 17.19378 8.87863 24.02604 15.46046 6.83192 6.58229 12.29609 14.15714 16.39248 22.7246 4.09604 8.56786 6.14416 17.69445 6.14434 27.37978-.00018 8.69289-1.67695 16.82666-5.03027 24.40137-3.35372 7.57503-8.13391 14.59096-14.34059 21.04782 9.68525 7.44994 16.94932 16.07824 21.79223 25.88489 4.84253 9.80688 7.26388 20.42457 7.26407 31.85309zm-49.91639-104.30123c-.00014-8.19991-3.41428-15.21774-10.24245-21.0535-6.82844-5.83536-15.08531-8.75313-24.77063-8.75335-9.68554.00022-17.94241 2.91799-24.77062 8.75335-6.8284 5.83576-10.24255 12.85359-10.24247 21.0535-.00008 7.44999 3.41407 13.84447 10.24247 19.18347 6.82821 5.33931 15.08508 8.0089 24.77062 8.00874 9.68532.00016 17.94219-2.66943 24.77063-8.00874 6.82817-5.339 10.24231-11.73348 10.24245-19.18347zm10.42436 105.04016c-.00015-5.21404-1.24115-10.11742-3.72298-14.71018-2.48214-4.59256-5.77125-8.56568-9.86733-11.91932-4.09637-3.35346-8.87656-6.02303-14.34059-8.00876-5.46428-1.98549-11.29979-2.97829-17.50654-2.97841-6.20697.00012-11.97995.99292-17.31898 2.97841-5.3392 1.98573-10.05877 4.6553-14.1587 8.00876-4.1001 3.35364-7.32857 7.32676-9.68545 11.91932-2.357 4.59276-3.53546 9.49614-3.5354 14.71018-.00006 5.96446 1.1784 11.55372 3.5354 16.76777 2.35688 5.21417 5.58535 9.80682 9.68545 13.778 4.09993 3.97124 8.8195 7.07471 14.1587 9.31037 5.33903 2.23574 11.11201 3.35359 17.31898 3.35355 6.20675.00004 12.10478-1.11781 17.69412-3.35355 5.58906-2.23566 10.43178-5.33913 14.52816-9.31037 4.09607-3.97118 7.32266-8.56383 9.67975-13.778 2.35679-5.21405 3.53526-10.80331 3.53541-16.76777z" font-family="Roadgeek 2005 Series D" font-size="373.12530518" font-weight="400" style="text-align:center;line-height:125%" text-anchor="middle"/>
  <path fill="#fff" d="M108.86859 112.81165V50.416161h8.74108v62.395489h-8.74108zm50.70106 0-19.25023-41.813933v41.813933h-8.92838V50.416161h8.92838l17.11035 37.437288V50.416161h8.92839v62.395489h-6.78851zm35.84689-54.105458v54.105458h-9.01919V58.706192h-11.34637v-8.290031h31.71192v8.290031h-11.34636zm19.88878 54.105458V50.416161h29.29395v8.756113H224.2337v15.735995h12.92714v8.568544H224.2337v20.581557h22.78356v8.75328h-31.71194zm67.89941 0-8.27849-29.334837h-8.55377v29.334837h-8.92837V50.416161h18.60032c2.41796.000063 4.63443.403623 6.64947 1.210679 2.01495.807181 3.75086 1.925022 5.20774 3.353528 1.45681 1.42862 2.57262 3.182588 3.34744 5.261909.77472 2.079426 1.16212 4.361053 1.16216 6.844888-.00004 3.72492-.74407 6.891346-2.23209 9.49929-1.48812 2.608015-3.7202 4.469978-6.69629 5.585892l8.92838 30.639303h-9.2065zm.46542-45.724485c-.00003-2.421312-.74406-4.345798-2.2321-5.773466-1.48809-1.427563-3.44111-2.141371-5.85905-2.141425h-9.20653v15.735995h9.20653c2.60336.000038 4.60273-.667351 5.99812-2.002168 1.39532-1.334738 2.093-3.27438 2.09303-5.818936zm50.89404 28.681174c-.00003 2.546421-.44938 4.921361-1.34805 7.124821-.89875 2.20349-2.13848 4.11233-3.71921 5.72657-1.5808 1.61425-3.40989 2.9026-5.48729 3.86509-2.07745.96248-4.32515 1.44371-6.74312 1.44371-2.72828 0-5.17701-.52765-7.34619-1.58297-2.16919-1.05532-3.99781-2.48293-5.48586-4.28286-1.48807-1.79991-2.6351-3.87975-3.4411-6.23955-.806-2.359762-1.209-4.811906-1.20899-7.356434h8.74108c-.00002 1.303535.17027 2.59142.51084 3.86366.34054 1.27227.86746 2.420894 1.58077 3.445894.71328 1.02502 1.61245 1.84777 2.69753 2.46825 1.08504.62051 2.40234.93075 3.95192.93074 1.17871.00001 2.31059-.24819 3.39569-.74459 1.08503-.49638 2.01495-1.1794 2.78976-2.04906.77475-.86964 1.39437-1.87854 1.8589-3.026703.46446-1.148141.6967-2.343663.69673-3.586568-.00003-1.799896-.37181-3.398029-1.11534-4.794405-.74359-1.396332-2.04529-2.80879-3.9051-4.23738-.31031-.310695-.43424-.481687-.37178-.512975.06242-.031236-.12347-.201754-.55767-.511556-.43424-.309746-1.34903-.915086-2.74436-1.816019-1.39537-.900875-3.67382-2.43696-6.83535-4.608257-2.54097-1.73925-4.44717-3.773153-5.71858-6.101712-1.27145-2.328479-1.90716-4.889093-1.90716-7.681849 0-2.235634.403-4.331112 1.20902-6.286441.80597-1.95522 1.93738-3.677926 3.39423-5.168124 1.45684-1.49008 3.14641-2.654338 5.0687-3.492783 1.92226-.838317 3.99874-1.257508 6.22944-1.257571 2.23253.000063 4.29434.403623 6.18543 1.210678 1.89105.807182 3.53378 1.925022 4.92821 3.353528 1.39437 1.428622 2.51018 3.13617 3.34745 5.122653.83716 1.986589 1.28699 4.159274 1.34945 6.51806h-8.55659c-.12301-2.173111-.86658-3.911448-2.23068-5.215017-1.36417-1.303463-3.03859-1.955221-5.02327-1.955275-2.04529.000054-3.78074.683073-5.20634 2.04906-1.42564 1.366092-2.13845 3.073168-2.13844 5.121232-.00001 1.551762.40299 2.855279 1.209 3.910554.80597 1.05536 2.35552 2.234778 4.64865 3.538255 6.01467 3.476712 10.40128 7.015437 13.15986 10.616182 2.75852 3.600803 4.13778 7.667187 4.13781 12.199162zm25.95645-37.062147v54.105458h-9.0192V58.706192h-11.34636v-8.290031H371.867v8.290031h-11.34636zm45.92752 54.105458-4.37053-17.043311h-13.39257l-4.08958 17.043311h-9.02203l15.5296-62.395489h8.7439l15.52959 62.395489h-8.92838zM395.2891 69.042441l-4.37054 17.972627h8.92839l-4.55785-17.972627zm44.24174-10.336249v54.105458h-9.01919V58.706192h-11.34636v-8.290031h31.71192v8.290031h-11.34637zm19.8888 54.105458V50.416161h29.29394v8.756113h-20.36556v15.735995h12.92713v8.568544h-12.92713v20.581557h22.78355v8.75328h-31.71193z" font-family="Roadgeek 2005 Series C" font-size="93.21589661" font-weight="400" style="text-align:center;line-height:125%" text-anchor="middle"/>
</svg>