<svg width="64" height="64" viewBox="0 0 64 64" fill="none" xmlns="http://www.w3.org/2000/svg">
<g clip-path="url(#clip0_345_1455)">
<path d="M37.2739 36.9215C38.0473 35.0934 36.9926 34.2497 35.9379 34.2497L25.5317 34.109C25.2504 34.109 25.2504 33.6872 25.602 33.6169L36.1489 33.4762C37.3442 33.4059 38.7504 32.4215 39.1723 31.1559C39.1723 31.1559 39.8754 29.6794 39.8051 29.4684C39.5007 27.9998 38.7207 26.6724 37.5859 25.6918C36.451 24.7112 35.0245 24.1321 33.5272 24.044C32.03 23.9559 30.5454 24.3639 29.3034 25.2046C28.0614 26.0454 27.1312 27.2722 26.6567 28.695C23.9848 26.9372 21.1723 29.3278 21.8051 31.9294C18.4301 32.1403 17.2348 35.1637 17.5864 36.9919C17.5864 37.0622 17.6567 37.1325 17.7973 37.1325H37.0629C37.1332 37.1325 37.2739 37.0622 37.2739 36.9215Z" fill="#F38020"/>
<path d="M40.7891 29.75C40.5078 29.75 40.3672 29.6797 40.2969 29.8203L39.9453 31.2969C39.5938 32.4219 40.1562 33.4062 41.3516 33.4766L43.6016 33.6172C43.8828 33.6172 43.8828 34.0391 43.5312 34.1094L41.2109 34.1797C38.6797 34.4609 37.9766 36.9219 37.9766 36.9219C37.9766 37.0625 37.9766 37.1328 38.1172 37.1328H46.0625L46.2734 36.9922C46.5125 36.145 46.552 35.254 46.3887 34.389C46.2255 33.5241 45.864 32.7087 45.3326 32.007C44.8011 31.3053 44.1143 30.7363 43.326 30.3447C42.5377 29.9531 41.6693 29.7495 40.7891 29.75Z" fill="#FAAE40"/>
</g>
<defs>
<clipPath id="clip0_345_1455">
<rect width="30" height="30" fill="white" transform="translate(17 17)"/>
</clipPath>
</defs>
</svg>
