<svg width="64" height="64" viewBox="0 0 64 64" fill="none" xmlns="http://www.w3.org/2000/svg">
<mask id="mask0_401_12224" style="mask-type:luminance" maskUnits="userSpaceOnUse" x="17" y="17" width="30" height="30">
<path d="M47 17H17V47H47V17Z" fill="white"/>
</mask>
<g mask="url(#mask0_401_12224)">
<path d="M31.0176 17.0081C30.9531 17.0139 30.7478 17.0345 30.563 17.0491C26.3021 17.4332 22.3109 19.732 19.783 23.2652C18.3754 25.2297 17.4751 27.4582 17.1349 29.8185C17.0147 30.6424 17 30.8858 17 32.0029C17 33.1201 17.0147 33.3634 17.1349 34.1874C17.9501 39.82 21.9589 44.5524 27.3959 46.3058C28.3695 46.6196 29.3959 46.8336 30.563 46.9626C31.0176 47.0125 32.9824 47.0125 33.437 46.9626C35.4516 46.7398 37.1584 46.2413 38.8416 45.3822C39.0997 45.2503 39.1496 45.2151 39.1144 45.1858C39.0909 45.1682 37.9912 43.6933 36.6716 41.9106L34.2727 38.6706L31.2669 34.2226C29.6129 31.7772 28.2522 29.7775 28.2405 29.7775C28.2287 29.7745 28.217 31.7508 28.2111 34.1639C28.2023 38.3891 28.1994 38.5592 28.1466 38.6589C28.0704 38.8025 28.0117 38.8612 27.8886 38.9257C27.7947 38.9726 27.7126 38.9814 27.2698 38.9814H26.7625L26.6276 38.8964C26.5396 38.8406 26.4751 38.7673 26.4311 38.6823L26.3695 38.5504L26.3754 32.6715L26.3842 26.7896L26.4751 26.6753C26.522 26.6137 26.6217 26.5345 26.6921 26.4964C26.8123 26.4378 26.8592 26.4319 27.3666 26.4319C27.9648 26.4319 28.0645 26.4554 28.2199 26.6254C28.2639 26.6723 29.8915 29.1236 31.8387 32.0762C33.7859 35.0289 36.4487 39.0606 37.7566 41.0397L40.132 44.6374L40.2522 44.5583C41.3167 43.8663 42.4428 42.8811 43.3343 41.8549C45.2317 39.6763 46.4545 37.0198 46.8651 34.1874C46.9853 33.3634 47 33.1201 47 32.0029C47 30.8858 46.9853 30.6424 46.8651 29.8185C46.0499 24.1859 42.0411 19.4535 36.6041 17.7001C35.6452 17.3892 34.6246 17.1752 33.4809 17.0462C33.1994 17.0169 31.261 16.9846 31.0176 17.0081ZM37.1584 26.0801C37.2991 26.1504 37.4135 26.2853 37.4545 26.426C37.478 26.5023 37.4839 28.1325 37.478 31.8065L37.4692 37.0784L36.5396 35.6534L35.607 34.2284V30.3961C35.607 27.9185 35.6188 26.5257 35.6364 26.4583C35.6833 26.2941 35.7859 26.1651 35.9267 26.0889C36.0469 26.0273 36.0909 26.0214 36.5513 26.0214C36.9853 26.0214 37.0616 26.0273 37.1584 26.0801Z" fill="white"/>
</g>
</svg>
