<svg width="64" height="64" viewBox="0 0 64 64" fill="none" xmlns="http://www.w3.org/2000/svg">
<mask id="mask0_401_12196" style="mask-type:luminance" maskUnits="userSpaceOnUse" x="17" y="17" width="30" height="30">
<path d="M47 17H17V47H47V17Z" fill="white"/>
</mask>
<g mask="url(#mask0_401_12196)">
<mask id="mask1_401_12196" style="mask-type:luminance" maskUnits="userSpaceOnUse" x="17" y="17" width="29" height="30">
<path d="M46 17H17V47H46V17Z" fill="white"/>
</mask>
<g mask="url(#mask1_401_12196)">
<path d="M44.7762 35.4453C41.1919 36.1826 40.9448 34.9717 40.9448 34.9717C44.7297 29.3686 46.3103 22.2544 44.945 20.5137C41.2212 15.7651 34.7744 18.0112 34.6667 18.0698L34.63 18.0747C33.9229 17.9282 33.1302 17.8403 32.2396 17.8257C30.6175 17.7988 29.3869 18.2505 28.4547 18.956C28.4547 18.956 16.953 14.227 17.4889 24.9033C17.6039 27.1738 20.7502 42.0859 24.5058 37.5815C25.8784 35.9336 27.2045 34.542 27.2045 34.542C27.8626 34.979 28.6529 35.2012 29.4774 35.1206L29.541 35.0669C29.5214 35.272 29.5312 35.4721 29.5655 35.709C28.599 36.7881 28.8829 36.9761 26.9476 37.374C24.9903 37.7768 26.1402 38.4922 26.8913 38.6802C27.8014 38.9072 29.9055 39.2295 31.3295 37.2422L31.2732 37.4692C31.6524 37.772 31.9191 39.4394 31.8751 40.9507C31.8311 42.4619 31.8017 43.4995 32.1002 44.31C32.3987 45.1206 32.6972 46.9443 35.2392 46.3999C37.3629 45.9458 38.4639 44.769 38.618 42.8061C38.7257 41.4096 38.9728 41.6172 38.9875 40.3696L39.1856 39.7788C39.4132 37.8867 39.2223 37.2763 40.5313 37.5596L40.8494 37.5864C41.8133 37.6304 43.0734 37.4326 43.8122 37.0884C45.4001 36.3535 46.347 35.1206 44.7762 35.4453Z" fill="#336791"/>
<path d="M31.0417 36.5168C31.0491 36.2727 31.2521 36.0798 31.4968 36.0871C31.7415 36.0944 31.9348 36.2971 31.9274 36.5412C31.876 38.3552 31.8858 40.174 31.9519 41.6291C32.0131 42.9401 32.1183 43.9265 32.2651 44.2927C32.4216 44.6809 32.6639 45.2546 33.1287 45.6428C33.5813 46.0236 34.2786 46.2556 35.3894 46.0188C36.3607 45.8112 37.014 45.5158 37.4495 45.0642C37.8801 44.6174 38.1248 43.9851 38.2764 43.1013C38.389 42.4567 38.5431 41.3313 38.6826 40.2107C38.8587 38.8093 39.0202 37.3933 39.0545 36.9367C39.0716 36.6926 39.2845 36.5095 39.5291 36.529C39.7738 36.5461 39.9573 36.7585 39.9377 37.0026C39.9035 37.447 39.742 38.8801 39.5585 40.323C39.4117 41.4802 39.2551 42.6276 39.1474 43.2502C38.964 44.3073 38.6532 45.0861 38.0832 45.677C37.5155 46.2653 36.7204 46.6364 35.568 46.883C34.1367 47.1882 33.1923 46.8537 32.5538 46.3166C31.925 45.7893 31.6265 45.091 31.4381 44.6198C31.2521 44.1584 31.1274 43.0695 31.0613 41.6657C30.9977 40.1984 30.9904 38.3552 31.0417 36.5168Z" fill="#B0B0B0"/>
<path d="M28.5994 18.4669C28.827 18.5573 28.9371 18.8136 28.8466 19.0407C28.756 19.2677 28.4991 19.3776 28.2716 19.2873C28.2422 19.2751 17.4036 14.8561 17.9052 24.8366C17.9664 26.0695 18.945 31.1134 20.4326 34.6315C20.9023 35.7399 21.4186 36.6872 21.9666 37.2926C22.4241 37.8004 22.8914 38.0446 23.3416 37.8834C23.5912 37.7931 23.8579 37.5905 24.1392 37.2536C25.5167 35.6007 26.7694 34.2946 26.7742 34.2921C26.9431 34.1164 27.222 34.109 27.3981 34.2775C27.5743 34.4459 27.5816 34.7243 27.4128 34.9C27.4104 34.9025 26.1871 36.1745 24.8194 37.8175C24.4304 38.2863 24.034 38.5768 23.6352 38.7184C22.7887 39.0187 22.0106 38.6671 21.306 37.8859C20.6895 37.2047 20.1218 36.172 19.6178 34.9733C18.0887 31.3625 17.0831 26.1574 17.0195 24.8781C16.4494 13.5109 28.5652 18.4523 28.5994 18.4669Z" fill="#B0B0B0"/>
<path d="M34.8847 18.3987L34.2266 17.6809C34.2804 17.6614 34.3342 17.6443 34.388 17.6297C34.5324 17.5833 34.689 17.5369 34.8578 17.4881C35.1049 17.4148 35.467 17.3196 35.9098 17.2342C38.1192 16.8069 42.4301 16.575 45.2707 20.198C46.0732 21.221 46.0071 23.7527 45.1777 26.7508C44.4437 29.4046 43.1201 32.4637 41.29 35.1736C41.153 35.3763 40.8765 35.43 40.6735 35.2933C40.4704 35.1565 40.4166 34.8807 40.5536 34.678C42.3298 32.0486 43.6119 29.0823 44.3238 26.514C45.0823 23.7747 45.2022 21.5408 44.5734 20.74C42.024 17.4905 38.0922 17.7102 36.0738 18.1033C35.6603 18.1839 35.33 18.2693 35.1049 18.3352L34.8847 18.3987Z" fill="#B0B0B0"/>
<path d="M41.3409 34.7902C41.3458 34.8024 41.3482 34.8147 41.3507 34.8269C41.3507 34.8293 41.5023 35.6179 44.661 34.9685C45.1087 34.8757 45.4268 34.8952 45.6323 34.9953C45.899 35.1223 46.0139 35.3347 45.9968 35.6081C45.987 35.7741 45.9087 35.9523 45.7791 36.1306C45.4806 36.5383 44.798 37.0656 43.9686 37.4489C43.3471 37.737 42.4003 37.9299 41.5317 37.9787C41.0204 38.008 40.531 37.9885 40.142 37.9104C39.6527 37.8127 39.2808 37.6101 39.1267 37.2805C39.0851 37.1926 39.0606 37.0974 39.0557 36.9948C38.9578 35.281 39.7946 34.9807 40.3793 34.8147C40.3182 34.7268 40.235 34.6218 40.142 34.507C39.846 34.1384 39.4667 33.6647 39.1658 32.9397C39.1193 32.8298 38.9848 32.5856 38.8037 32.2634C38.0379 30.8938 36.5308 28.1936 36.8268 26.3503C37.0372 25.0344 38.0428 24.1604 40.5555 24.4216L40.531 24.3483C40.4111 24.009 40.2203 23.5647 39.9438 23.0666C38.8477 21.0744 36.4574 18.2961 32.2125 18.2277C25.7362 18.1228 25.9491 26.2722 25.9491 26.2941C25.954 26.5383 25.7582 26.7385 25.5136 26.7434C25.2689 26.7482 25.0683 26.5529 25.0634 26.3088C25.0634 26.2819 24.8236 17.2243 32.2247 17.3439C36.8978 17.4196 39.5206 20.4616 40.7194 22.6394C41.0179 23.1814 41.2308 23.6745 41.3653 24.0578C41.517 24.4875 41.5733 24.8244 41.5488 24.9733C41.5146 25.1931 41.3922 25.3298 41.1818 25.3713L41.0228 25.3737C38.7181 25.0051 37.8471 25.569 37.7003 26.487C37.4532 28.0324 38.8624 30.552 39.5768 31.8337C39.7701 32.1804 39.9169 32.444 39.983 32.6052C40.2374 33.218 40.5702 33.633 40.8295 33.9602C41.0717 34.2556 41.2626 34.4948 41.3409 34.7902ZM44.8396 35.8327C42.4981 36.3161 41.4069 35.9621 40.9054 35.5813C40.8369 35.6032 40.7635 35.6228 40.6852 35.6447C40.372 35.7326 39.8851 35.8693 39.9365 36.9191C39.9732 36.9582 40.1102 36.9997 40.3108 37.0412C40.6313 37.1047 41.0424 37.1193 41.4803 37.0949C42.2461 37.051 43.0706 36.8874 43.5967 36.6433C44.1374 36.3918 44.59 36.0891 44.8689 35.8254L44.8396 35.8327Z" fill="#B0B0B0"/>
<path d="M29.87 35.9625C29.6889 36.1651 29.5397 36.3531 29.4125 36.5142C28.8693 37.2027 28.7005 37.4175 27.0148 37.7642C26.7114 37.8277 26.5059 37.8887 26.3786 37.9498C26.5352 38.0621 26.7701 38.1548 26.9756 38.2061C27.3916 38.3111 28.0815 38.4356 28.8204 38.3111C29.5397 38.189 30.3153 37.8204 30.9441 36.9415C30.9636 36.9122 30.9808 36.8804 30.9955 36.8487C31.0591 36.6949 31.0444 36.502 30.9808 36.3189C30.9123 36.1236 30.7875 35.9527 30.6431 35.8477C30.6089 35.8233 30.5746 35.8038 30.5379 35.7891L30.5159 35.7793C30.4254 35.7427 30.3251 35.7037 30.2394 35.711C30.1465 35.7208 30.029 35.7842 29.87 35.9625ZM28.7152 35.9649C28.8351 35.8135 28.9745 35.6377 29.1849 35.4009C29.2021 35.379 29.2216 35.357 29.2412 35.3375C29.5666 34.9859 29.8773 34.8541 30.1636 34.8296C30.4474 34.8052 30.6676 34.8858 30.8535 34.9639C30.8609 34.9664 30.8682 34.9688 30.878 34.9737C30.9734 35.0127 31.0664 35.0665 31.1569 35.1299C31.4481 35.3375 31.6879 35.667 31.8175 36.0259C31.9496 36.3995 31.9717 36.8169 31.8151 37.188C31.7759 37.2808 31.727 37.3687 31.6658 37.4542C30.8731 38.5625 29.8847 39.0264 28.9696 39.1827C28.0717 39.3365 27.2545 39.1875 26.7603 39.0655C26.4007 38.9751 25.9554 38.775 25.6936 38.5308C25.5394 38.3868 25.4342 38.2159 25.4049 38.0254C25.3706 37.7984 25.4391 37.5787 25.6471 37.3834C25.8477 37.1954 26.2196 37.0245 26.8337 36.8975C28.2014 36.6167 28.3237 36.4629 28.7152 35.9649Z" fill="#B0B0B0"/>
<path d="M29.9162 35.5793C29.9529 35.821 29.7865 36.048 29.5443 36.0822C29.3021 36.1164 29.0745 35.9528 29.0403 35.7111C29.0305 35.6525 29.0256 35.5939 29.0207 35.5329C28.8739 35.528 28.7295 35.5182 28.5876 35.4963C27.6383 35.3644 26.7796 34.8859 26.1337 34.1779C25.4951 33.4797 25.0645 32.5568 24.9642 31.5265C24.9275 31.1603 24.9348 30.7795 24.9886 30.3962C25.2064 28.8483 25.1232 27.464 25.0816 26.7463C25.0694 26.551 25.062 26.4045 25.062 26.2922C25.0645 26.0016 25.796 25.362 26.76 24.9665C27.1955 24.7883 27.6824 24.6393 28.1644 24.5661C28.6733 24.4904 29.1871 24.4977 29.6495 24.6418C30.3737 24.8688 30.9486 25.4035 31.1688 26.4264C31.964 30.091 31.252 31.6657 30.6966 32.8986C30.6012 33.111 30.5107 33.3112 30.4422 33.4919C30.4397 33.5041 30.4349 33.5139 30.43 33.5261C30.1975 34.1511 30.5376 33.2355 30.3615 33.7018C30.085 34.4538 29.8428 35.0983 29.9162 35.5793ZM29.1161 34.6515C29.2115 34.2585 29.3681 33.8434 29.5345 33.3967C29.6666 33.0451 29.3216 33.9655 29.5981 33.2209C29.603 33.2087 29.6079 33.1965 29.6128 33.1843C29.6984 32.9572 29.7914 32.7546 29.8868 32.5397C30.3908 31.424 31.0318 29.9982 30.3003 26.6193C30.1584 25.9626 29.8134 25.6257 29.3828 25.4914C29.0598 25.3913 28.6806 25.3889 28.2916 25.4474C27.8757 25.5109 27.4597 25.6379 27.0879 25.7892C26.4346 26.0554 25.9404 26.28 25.9404 26.2995C25.9404 26.363 25.9477 26.507 25.96 26.6999C26.004 27.4445 26.0896 28.8874 25.8621 30.5231C25.818 30.843 25.8107 31.153 25.8401 31.4509C25.9208 32.2809 26.2682 33.0256 26.7845 33.5895C27.2934 34.1462 27.9662 34.5246 28.7051 34.6271C28.8421 34.6418 28.9791 34.6515 29.1161 34.6515Z" fill="#B0B0B0"/>
<path d="M28.3935 26.2333C28.374 26.3774 28.6602 26.7656 29.0321 26.8168C29.404 26.8681 29.7245 26.5654 29.7441 26.4213C29.7636 26.2773 29.4774 26.1161 29.1055 26.0649C28.7336 26.0136 28.4131 26.0893 28.3935 26.2333Z" fill="#B0B0B0"/>
<path d="M28.5409 26.2526C28.536 26.2844 28.5874 26.3674 28.673 26.4577C28.7684 26.5578 28.903 26.6481 29.0523 26.6701H29.0547C29.2015 26.6896 29.3385 26.6408 29.4413 26.57C29.5367 26.5065 29.5954 26.4382 29.6027 26.3991C29.6027 26.3918 29.566 26.3698 29.5049 26.3356C29.4046 26.2795 29.2578 26.2331 29.089 26.2087H29.0841C28.9177 26.1867 28.7635 26.1916 28.6535 26.2184C28.5849 26.2355 28.5409 26.2477 28.5409 26.2526ZM28.4602 26.6603C28.3158 26.509 28.2351 26.3283 28.2498 26.216V26.2111C28.2693 26.072 28.3941 25.9767 28.5849 25.9304C28.7293 25.8962 28.9201 25.8889 29.1232 25.9157C29.1257 25.9157 29.1281 25.9157 29.1305 25.9157C29.3361 25.945 29.5196 26.0036 29.6492 26.0768C29.8205 26.1721 29.9159 26.3015 29.8963 26.4382C29.8817 26.5456 29.7716 26.7018 29.6076 26.8117C29.4535 26.9167 29.2431 26.9924 29.0156 26.9606H29.0131C28.788 26.9313 28.5947 26.8019 28.4602 26.6603Z" fill="#B0B0B0"/>
<path d="M39.7558 25.9384C39.7754 26.0825 39.4891 26.4706 39.1172 26.5219C38.7429 26.5732 38.4248 26.2704 38.4052 26.1264C38.3857 25.9824 38.6719 25.8212 39.0463 25.77C39.4157 25.7187 39.7338 25.7944 39.7558 25.9384Z" fill="#B0B0B0"/>
<path d="M39.8277 25.9281C39.8399 26.0209 39.7665 26.1796 39.6368 26.3163C39.5121 26.4481 39.331 26.5677 39.1255 26.5946H39.123C38.9175 26.6215 38.7267 26.5531 38.5848 26.4579C38.438 26.3602 38.3426 26.2259 38.3279 26.1356C38.3132 26.0306 38.3939 25.9281 38.5383 25.8475C38.6606 25.7792 38.8343 25.723 39.0301 25.6962C39.2258 25.6693 39.4093 25.6766 39.5463 25.7084C39.7078 25.745 39.813 25.8207 39.8277 25.9281ZM39.5292 26.2137C39.6295 26.1088 39.6882 26.0013 39.6809 25.9476C39.676 25.9086 39.6124 25.8744 39.5145 25.85C39.3946 25.8207 39.2307 25.8158 39.0521 25.8402C38.8759 25.8646 38.7193 25.9159 38.6117 25.9745C38.5236 26.0233 38.4722 26.0746 38.4771 26.1136C38.4845 26.1674 38.5579 26.2577 38.6704 26.3334C38.7854 26.4115 38.942 26.4676 39.1084 26.4457H39.1108C39.2747 26.4237 39.424 26.3236 39.5292 26.2137Z" fill="#B0B0B0"/>
<path d="M40.6473 24.9566C40.6351 24.7125 40.8235 24.505 41.0681 24.4927C41.3128 24.4805 41.5207 24.6685 41.533 24.9127C41.5697 25.5963 41.4865 26.1383 41.3984 26.7071C41.3324 27.1319 41.2639 27.5762 41.2492 28.0719C41.2345 28.543 41.2957 29.0655 41.3617 29.6026C41.533 31.0162 41.714 32.5299 40.662 34.0948C40.525 34.2974 40.2509 34.3511 40.0479 34.2169C39.8448 34.0802 39.791 33.8067 39.9255 33.6041C40.7917 32.3126 40.6302 30.9674 40.4785 29.7076C40.41 29.1461 40.3439 28.5992 40.3635 28.0474C40.3806 27.4761 40.4516 27.0196 40.5201 26.5777C40.6033 26.0455 40.6791 25.5426 40.6473 24.9566Z" fill="#B0B0B0"/>
</g>
</g>
</svg>
