<svg width="64" height="64" viewBox="0 0 64 64" fill="none" xmlns="http://www.w3.org/2000/svg">
<mask id="mask0_401_12173" style="mask-type:luminance" maskUnits="userSpaceOnUse" x="17" y="17" width="30" height="30">
<path d="M47 17H17V47H47V17Z" fill="white"/>
</mask>
<g mask="url(#mask0_401_12173)">
<mask id="mask1_401_12173" style="mask-type:luminance" maskUnits="userSpaceOnUse" x="17" y="17" width="30" height="30">
<path d="M47 17H17V47H47V17Z" fill="white"/>
</mask>
<g mask="url(#mask1_401_12173)">
<path d="M31.999 17.0498C23.7403 17.0498 17.0449 23.745 17.0449 32.0037C17.0449 40.2628 23.7403 46.9575 31.999 46.9575C40.2587 46.9575 46.9533 40.2628 46.9533 32.0037C46.9533 23.7455 40.2588 17.0498 31.999 17.0498ZM38.8569 38.6177C38.589 39.0569 38.014 39.1962 37.5747 38.9266C34.0637 36.7819 29.6437 36.2962 24.4383 37.4855C23.9367 37.5998 23.4367 37.2855 23.3224 36.7837C23.2076 36.2819 23.5206 35.7819 24.0235 35.6677C29.7199 34.3657 34.6062 34.9266 38.548 37.3355C38.9872 37.6052 39.1265 38.1784 38.8569 38.6177ZM40.6872 34.5453C40.3497 35.0944 39.6319 35.2677 39.0837 34.9302C35.064 32.4589 28.9367 31.7434 24.1822 33.1866C23.5656 33.3728 22.9144 33.0253 22.7272 32.4098C22.5415 31.7932 22.8892 31.1432 23.5047 30.9557C28.9356 29.3078 35.6872 30.1061 40.3033 32.9427C40.8515 33.2802 41.0247 33.9978 40.6872 34.5453ZM40.8444 30.3053C36.0247 27.4427 28.073 27.1794 23.4714 28.5761C22.7324 28.8002 21.951 28.383 21.7271 27.6441C21.5031 26.9048 21.9199 26.1239 22.6594 25.8993C27.9417 24.2957 36.723 24.6055 42.2719 27.8996C42.938 28.2941 43.1558 29.1525 42.7612 29.8162C42.3683 30.4809 41.5069 30.7 40.8444 30.3053Z" fill="#1ED760"/>
</g>
</g>
</svg>
